<svg width="73" height="121" viewBox="0 0 73 121" fill="none" xmlns="http://www.w3.org/2000/svg">
<path d="M2.8811 121.005L69.146 121.005C70.7306 121.005 72.027 119.709 72.027 118.124L72.027 51.8595C72.027 50.2749 70.7305 48.9784 69.146 48.9784L31.6919 48.9784L31.6919 46.0973C31.6919 31.8071 43.3315 20.1676 57.6216 20.1676L69.1459 20.1676C70.7305 20.1676 72.027 18.8711 72.027 17.2865L72.027 2.88107C72.027 1.29648 70.7305 -7.51605e-06 69.1459 -7.37752e-06L51.8595 -5.86629e-06C23.2503 -3.3652e-06 6.71529e-06 23.2791 9.21386e-06 51.8595L1.50069e-05 118.124C1.51454e-05 119.709 1.2965 121.005 2.8811 121.005Z" fill="#E0EFF6"/>
</svg>
